<mxfile host="app.diagrams.net" modified="2024-03-20T09:41:35.925Z" agent="Mozilla/5.0 (Windows NT 10.0; Win64; x64) AppleWebKit/537.36 (KHTML, like Gecko) Chrome/121.0.0.0 Safari/537.36" version="24.0.7" etag="OxLx9R1IB4FYUZXYJzM1" type="github">
  <diagram name="Strona-1" id="zYO2sCu1QXrAk6QiHeTk">
    <mxGraphModel>
      <root>
        <mxCell id="0" />
        <mxCell id="1" parent="0" />
      </root>
    </mxGraphModel>
  </diagram>
</mxfile>
